<?xml version="1.0" encoding="UTF-8" standalone="no"?><svg xmlns="http://www.w3.org/2000/svg" xmlns:xlink="http://www.w3.org/1999/xlink" contentScriptType="application/ecmascript" contentStyleType="text/css" height="489px" preserveAspectRatio="none" style="width:891px;height:489px;" version="1.1" viewBox="0 0 891 489" width="891px" zoomAndPan="magnify"><defs><filter height="300%" id="fjbsb49j1on7e" width="300%" x="-1" y="-1"><feGaussianBlur result="blurOut" stdDeviation="2.0"/><feColorMatrix in="blurOut" result="blurOut2" type="matrix" values="0 0 0 0 0 0 0 0 0 0 0 0 0 0 0 0 0 0 .4 0"/><feOffset dx="4.0" dy="4.0" in="blurOut2" result="blurOut3"/><feBlend in="SourceGraphic" in2="blurOut3" mode="normal"/></filter></defs><g><!--MD5=[027ebfd53c01aea08f474edbf35d0797]
cluster Models--><polygon fill="#FFFFFF" filter="url(#fjbsb49j1on7e)" points="22,24,78,24,85,49.0679,360,49.0679,360,339,22,339,22,24" style="stroke: #000000; stroke-width: 1.5;"/><line style="stroke: #000000; stroke-width: 1.5;" x1="22" x2="85" y1="49.0679" y2="49.0679"/><text fill="#000000" font-family="sans-serif" font-size="14" font-weight="bold" lengthAdjust="spacingAndGlyphs" textLength="50" x="26" y="40.9659">Models</text><!--MD5=[cdfd548b3455e70392372b1f27091970]
cluster Services--><polygon fill="#FFFFFF" filter="url(#fjbsb49j1on7e)" points="547,192,609,192,616,217.0679,841,217.0679,841,477,547,477,547,192" style="stroke: #000000; stroke-width: 1.5;"/><line style="stroke: #000000; stroke-width: 1.5;" x1="547" x2="616" y1="217.0679" y2="217.0679"/><text fill="#000000" font-family="sans-serif" font-size="14" font-weight="bold" lengthAdjust="spacingAndGlyphs" textLength="56" x="551" y="208.9659">Services</text><!--MD5=[7cf36d57f6a11f0dd6d6482bff8f0505]
cluster Screens--><polygon fill="#FFFFFF" filter="url(#fjbsb49j1on7e)" points="384,31.5,443,31.5,450,56.5679,869,56.5679,869,163.5,384,163.5,384,31.5" style="stroke: #000000; stroke-width: 1.5;"/><line style="stroke: #000000; stroke-width: 1.5;" x1="384" x2="450" y1="56.5679" y2="56.5679"/><text fill="#000000" font-family="sans-serif" font-size="14" font-weight="bold" lengthAdjust="spacingAndGlyphs" textLength="53" x="388" y="48.4659">Screens</text><!--MD5=[c2d105e52fbb731d58293327cfa51995]
class UserModel--><rect fill="#FEFECE" filter="url(#fjbsb49j1on7e)" height="92.9457" id="UserModel" style="stroke: #A80036; stroke-width: 1.5;" width="94" x="146" y="62"/><ellipse cx="161" cy="78" fill="#ADD1B2" rx="11" ry="11" style="stroke: #A80036; stroke-width: 1.0;"/><path d="M163.9688,83.6406 Q163.3906,83.9375 162.75,84.0781 Q162.1094,84.2344 161.4063,84.2344 Q158.9063,84.2344 157.5781,82.5938 Q156.2656,80.9375 156.2656,77.8125 Q156.2656,74.6875 157.5781,73.0313 Q158.9063,71.375 161.4063,71.375 Q162.1094,71.375 162.75,71.5313 Q163.4063,71.6875 163.9688,71.9844 L163.9688,74.7031 Q163.3438,74.125 162.75,73.8594 Q162.1563,73.5781 161.5313,73.5781 Q160.1875,73.5781 159.5,74.6563 Q158.8125,75.7188 158.8125,77.8125 Q158.8125,79.9063 159.5,80.9844 Q160.1875,82.0469 161.5313,82.0469 Q162.1563,82.0469 162.75,81.7813 Q163.3438,81.5 163.9688,80.9219 L163.9688,83.6406 Z "/><text fill="#000000" font-family="sans-serif" font-size="12" lengthAdjust="spacingAndGlyphs" textLength="62" x="175" y="82.656">UserModel</text><line style="stroke: #A80036; stroke-width: 1.5;" x1="147" x2="239" y1="94" y2="94"/><text fill="#000000" font-family="sans-serif" font-size="11" lengthAdjust="spacingAndGlyphs" textLength="54" x="152" y="109.7589">+id: String</text><text fill="#000000" font-family="sans-serif" font-size="11" lengthAdjust="spacingAndGlyphs" textLength="73" x="152" y="124.7408">+name: String</text><text fill="#000000" font-family="sans-serif" font-size="11" lengthAdjust="spacingAndGlyphs" textLength="72" x="152" y="139.7227">+email: String</text><line style="stroke: #A80036; stroke-width: 1.5;" x1="147" x2="239" y1="146.9457" y2="146.9457"/><!--MD5=[8dadd0989915577bf4a2f518e0255ee2]
class AppointmentModel--><rect fill="#FEFECE" filter="url(#fjbsb49j1on7e)" height="92.9457" id="AppointmentModel" style="stroke: #A80036; stroke-width: 1.5;" width="139" x="38.5" y="222.5"/><ellipse cx="53.5" cy="238.5" fill="#ADD1B2" rx="11" ry="11" style="stroke: #A80036; stroke-width: 1.0;"/><path d="M56.4688,244.1406 Q55.8906,244.4375 55.25,244.5781 Q54.6094,244.7344 53.9063,244.7344 Q51.4063,244.7344 50.0781,243.0938 Q48.7656,241.4375 48.7656,238.3125 Q48.7656,235.1875 50.0781,233.5313 Q51.4063,231.875 53.9063,231.875 Q54.6094,231.875 55.25,232.0313 Q55.9063,232.1875 56.4688,232.4844 L56.4688,235.2031 Q55.8438,234.625 55.25,234.3594 Q54.6563,234.0781 54.0313,234.0781 Q52.6875,234.0781 52,235.1563 Q51.3125,236.2188 51.3125,238.3125 Q51.3125,240.4063 52,241.4844 Q52.6875,242.5469 54.0313,242.5469 Q54.6563,242.5469 55.25,242.2813 Q55.8438,242 56.4688,241.4219 L56.4688,244.1406 Z "/><text fill="#000000" font-family="sans-serif" font-size="12" lengthAdjust="spacingAndGlyphs" textLength="107" x="67.5" y="243.156">AppointmentModel</text><line style="stroke: #A80036; stroke-width: 1.5;" x1="39.5" x2="176.5" y1="254.5" y2="254.5"/><text fill="#000000" font-family="sans-serif" font-size="11" lengthAdjust="spacingAndGlyphs" textLength="54" x="44.5" y="270.2589">+id: String</text><text fill="#000000" font-family="sans-serif" font-size="11" lengthAdjust="spacingAndGlyphs" textLength="78" x="44.5" y="285.2408">+userId: String</text><text fill="#000000" font-family="sans-serif" font-size="11" lengthAdjust="spacingAndGlyphs" textLength="64" x="44.5" y="300.2227">+title: String</text><line style="stroke: #A80036; stroke-width: 1.5;" x1="39.5" x2="176.5" y1="307.4457" y2="307.4457"/><!--MD5=[df9b3ea9e5887220c67282df629d9ee7]
class HealthDataModel--><rect fill="#FEFECE" filter="url(#fjbsb49j1on7e)" height="107.9276" id="HealthDataModel" style="stroke: #A80036; stroke-width: 1.5;" width="131" x="212.5" y="215"/><ellipse cx="227.5" cy="231" fill="#ADD1B2" rx="11" ry="11" style="stroke: #A80036; stroke-width: 1.0;"/><path d="M230.4688,236.6406 Q229.8906,236.9375 229.25,237.0781 Q228.6094,237.2344 227.9063,237.2344 Q225.4063,237.2344 224.0781,235.5938 Q222.7656,233.9375 222.7656,230.8125 Q222.7656,227.6875 224.0781,226.0313 Q225.4063,224.375 227.9063,224.375 Q228.6094,224.375 229.25,224.5313 Q229.9063,224.6875 230.4688,224.9844 L230.4688,227.7031 Q229.8438,227.125 229.25,226.8594 Q228.6563,226.5781 228.0313,226.5781 Q226.6875,226.5781 226,227.6563 Q225.3125,228.7188 225.3125,230.8125 Q225.3125,232.9063 226,233.9844 Q226.6875,235.0469 228.0313,235.0469 Q228.6563,235.0469 229.25,234.7813 Q229.8438,234.5 230.4688,233.9219 L230.4688,236.6406 Z "/><text fill="#000000" font-family="sans-serif" font-size="12" lengthAdjust="spacingAndGlyphs" textLength="99" x="241.5" y="235.656">HealthDataModel</text><line style="stroke: #A80036; stroke-width: 1.5;" x1="213.5" x2="342.5" y1="247" y2="247"/><text fill="#000000" font-family="sans-serif" font-size="11" lengthAdjust="spacingAndGlyphs" textLength="54" x="218.5" y="262.7589">+id: String</text><text fill="#000000" font-family="sans-serif" font-size="11" lengthAdjust="spacingAndGlyphs" textLength="78" x="218.5" y="277.7408">+userId: String</text><text fill="#000000" font-family="sans-serif" font-size="11" lengthAdjust="spacingAndGlyphs" textLength="67" x="218.5" y="292.7227">+type: String</text><text fill="#000000" font-family="sans-serif" font-size="11" lengthAdjust="spacingAndGlyphs" textLength="77" x="218.5" y="307.7046">+value: double</text><line style="stroke: #A80036; stroke-width: 1.5;" x1="213.5" x2="342.5" y1="314.9276" y2="314.9276"/><!--MD5=[b4f586f7c628b5a371c8c0ac9af5f898]
class AuthService--><rect fill="#FEFECE" filter="url(#fjbsb49j1on7e)" height="77.9638" id="AuthService" style="stroke: #A80036; stroke-width: 1.5;" width="99" x="725.5" y="230"/><ellipse cx="740.5" cy="246" fill="#ADD1B2" rx="11" ry="11" style="stroke: #A80036; stroke-width: 1.0;"/><path d="M743.4688,251.6406 Q742.8906,251.9375 742.25,252.0781 Q741.6094,252.2344 740.9063,252.2344 Q738.4063,252.2344 737.0781,250.5938 Q735.7656,248.9375 735.7656,245.8125 Q735.7656,242.6875 737.0781,241.0313 Q738.4063,239.375 740.9063,239.375 Q741.6094,239.375 742.25,239.5313 Q742.9063,239.6875 743.4688,239.9844 L743.4688,242.7031 Q742.8438,242.125 742.25,241.8594 Q741.6563,241.5781 741.0313,241.5781 Q739.6875,241.5781 739,242.6563 Q738.3125,243.7188 738.3125,245.8125 Q738.3125,247.9063 739,248.9844 Q739.6875,250.0469 741.0313,250.0469 Q741.6563,250.0469 742.25,249.7813 Q742.8438,249.5 743.4688,248.9219 L743.4688,251.6406 Z "/><text fill="#000000" font-family="sans-serif" font-size="12" lengthAdjust="spacingAndGlyphs" textLength="67" x="754.5" y="250.656">AuthService</text><line style="stroke: #A80036; stroke-width: 1.5;" x1="726.5" x2="823.5" y1="262" y2="262"/><line style="stroke: #A80036; stroke-width: 1.5;" x1="726.5" x2="823.5" y1="270" y2="270"/><text fill="#000000" font-family="sans-serif" font-size="11" lengthAdjust="spacingAndGlyphs" textLength="45" x="731.5" y="285.7589">+signIn()</text><text fill="#000000" font-family="sans-serif" font-size="11" lengthAdjust="spacingAndGlyphs" textLength="54" x="731.5" y="300.7408">+signOut()</text><!--MD5=[85353a3d8b636afef5d34042bc73b11e]
class BluetoothService--><rect fill="#FEFECE" filter="url(#fjbsb49j1on7e)" height="77.9638" id="BluetoothService" style="stroke: #A80036; stroke-width: 1.5;" width="127" x="563.5" y="230"/><ellipse cx="578.5" cy="246" fill="#ADD1B2" rx="11" ry="11" style="stroke: #A80036; stroke-width: 1.0;"/><path d="M581.4688,251.6406 Q580.8906,251.9375 580.25,252.0781 Q579.6094,252.2344 578.9063,252.2344 Q576.4063,252.2344 575.0781,250.5938 Q573.7656,248.9375 573.7656,245.8125 Q573.7656,242.6875 575.0781,241.0313 Q576.4063,239.375 578.9063,239.375 Q579.6094,239.375 580.25,239.5313 Q580.9063,239.6875 581.4688,239.9844 L581.4688,242.7031 Q580.8438,242.125 580.25,241.8594 Q579.6563,241.5781 579.0313,241.5781 Q577.6875,241.5781 577,242.6563 Q576.3125,243.7188 576.3125,245.8125 Q576.3125,247.9063 577,248.9844 Q577.6875,250.0469 579.0313,250.0469 Q579.6563,250.0469 580.25,249.7813 Q580.8438,249.5 581.4688,248.9219 L581.4688,251.6406 Z "/><text fill="#000000" font-family="sans-serif" font-size="12" lengthAdjust="spacingAndGlyphs" textLength="95" x="592.5" y="250.656">BluetoothService</text><line style="stroke: #A80036; stroke-width: 1.5;" x1="564.5" x2="689.5" y1="262" y2="262"/><line style="stroke: #A80036; stroke-width: 1.5;" x1="564.5" x2="689.5" y1="270" y2="270"/><text fill="#000000" font-family="sans-serif" font-size="11" lengthAdjust="spacingAndGlyphs" textLength="74" x="569.5" y="285.7589">+scanDevices()</text><text fill="#000000" font-family="sans-serif" font-size="11" lengthAdjust="spacingAndGlyphs" textLength="100" x="569.5" y="300.7408">+connectToDevice()</text><!--MD5=[23f1ecad4227e6ad9be66882b07d8208]
class FirebaseService--><rect fill="#FEFECE" filter="url(#fjbsb49j1on7e)" height="77.9638" id="FirebaseService" style="stroke: #A80036; stroke-width: 1.5;" width="121" x="703.5" y="383"/><ellipse cx="718.5" cy="399" fill="#ADD1B2" rx="11" ry="11" style="stroke: #A80036; stroke-width: 1.0;"/><path d="M721.4688,404.6406 Q720.8906,404.9375 720.25,405.0781 Q719.6094,405.2344 718.9063,405.2344 Q716.4063,405.2344 715.0781,403.5938 Q713.7656,401.9375 713.7656,398.8125 Q713.7656,395.6875 715.0781,394.0313 Q716.4063,392.375 718.9063,392.375 Q719.6094,392.375 720.25,392.5313 Q720.9063,392.6875 721.4688,392.9844 L721.4688,395.7031 Q720.8438,395.125 720.25,394.8594 Q719.6563,394.5781 719.0313,394.5781 Q717.6875,394.5781 717,395.6563 Q716.3125,396.7188 716.3125,398.8125 Q716.3125,400.9063 717,401.9844 Q717.6875,403.0469 719.0313,403.0469 Q719.6563,403.0469 720.25,402.7813 Q720.8438,402.5 721.4688,401.9219 L721.4688,404.6406 Z "/><text fill="#000000" font-family="sans-serif" font-size="12" lengthAdjust="spacingAndGlyphs" textLength="89" x="732.5" y="403.656">FirebaseService</text><line style="stroke: #A80036; stroke-width: 1.5;" x1="704.5" x2="823.5" y1="415" y2="415"/><line style="stroke: #A80036; stroke-width: 1.5;" x1="704.5" x2="823.5" y1="423" y2="423"/><text fill="#000000" font-family="sans-serif" font-size="11" lengthAdjust="spacingAndGlyphs" textLength="83" x="709.5" y="438.7589">+saveUserData()</text><text fill="#000000" font-family="sans-serif" font-size="11" lengthAdjust="spacingAndGlyphs" textLength="86" x="709.5" y="453.7408">+fetchUserData()</text><!--MD5=[714ffb1cae08750987b6cb67c33233ec]
class DashboardScreen--><rect fill="#FEFECE" filter="url(#fjbsb49j1on7e)" height="62.9819" id="DashboardScreen" style="stroke: #A80036; stroke-width: 1.5;" width="133" x="560.5" y="77"/><ellipse cx="575.5" cy="93" fill="#ADD1B2" rx="11" ry="11" style="stroke: #A80036; stroke-width: 1.0;"/><path d="M578.4688,98.6406 Q577.8906,98.9375 577.25,99.0781 Q576.6094,99.2344 575.9063,99.2344 Q573.4063,99.2344 572.0781,97.5938 Q570.7656,95.9375 570.7656,92.8125 Q570.7656,89.6875 572.0781,88.0313 Q573.4063,86.375 575.9063,86.375 Q576.6094,86.375 577.25,86.5313 Q577.9063,86.6875 578.4688,86.9844 L578.4688,89.7031 Q577.8438,89.125 577.25,88.8594 Q576.6563,88.5781 576.0313,88.5781 Q574.6875,88.5781 574,89.6563 Q573.3125,90.7188 573.3125,92.8125 Q573.3125,94.9063 574,95.9844 Q574.6875,97.0469 576.0313,97.0469 Q576.6563,97.0469 577.25,96.7813 Q577.8438,96.5 578.4688,95.9219 L578.4688,98.6406 Z "/><text fill="#000000" font-family="sans-serif" font-size="12" lengthAdjust="spacingAndGlyphs" textLength="101" x="589.5" y="97.656">DashboardScreen</text><line style="stroke: #A80036; stroke-width: 1.5;" x1="561.5" x2="692.5" y1="109" y2="109"/><line style="stroke: #A80036; stroke-width: 1.5;" x1="561.5" x2="692.5" y1="117" y2="117"/><text fill="#000000" font-family="sans-serif" font-size="11" lengthAdjust="spacingAndGlyphs" textLength="121" x="566.5" y="132.7589">+displayHealthMetrics()</text><!--MD5=[e8dbfc276dffb8727bf4d49c4c935fc2]
class WearableScreen--><rect fill="#FEFECE" filter="url(#fjbsb49j1on7e)" height="77.9638" id="WearableScreen" style="stroke: #A80036; stroke-width: 1.5;" width="125" x="400.5" y="69.5"/><ellipse cx="415.5" cy="85.5" fill="#ADD1B2" rx="11" ry="11" style="stroke: #A80036; stroke-width: 1.0;"/><path d="M418.4688,91.1406 Q417.8906,91.4375 417.25,91.5781 Q416.6094,91.7344 415.9063,91.7344 Q413.4063,91.7344 412.0781,90.0938 Q410.7656,88.4375 410.7656,85.3125 Q410.7656,82.1875 412.0781,80.5313 Q413.4063,78.875 415.9063,78.875 Q416.6094,78.875 417.25,79.0313 Q417.9063,79.1875 418.4688,79.4844 L418.4688,82.2031 Q417.8438,81.625 417.25,81.3594 Q416.6563,81.0781 416.0313,81.0781 Q414.6875,81.0781 414,82.1563 Q413.3125,83.2188 413.3125,85.3125 Q413.3125,87.4063 414,88.4844 Q414.6875,89.5469 416.0313,89.5469 Q416.6563,89.5469 417.25,89.2813 Q417.8438,89 418.4688,88.4219 L418.4688,91.1406 Z "/><text fill="#000000" font-family="sans-serif" font-size="12" lengthAdjust="spacingAndGlyphs" textLength="93" x="429.5" y="90.156">WearableScreen</text><line style="stroke: #A80036; stroke-width: 1.5;" x1="401.5" x2="524.5" y1="101.5" y2="101.5"/><line style="stroke: #A80036; stroke-width: 1.5;" x1="401.5" x2="524.5" y1="109.5" y2="109.5"/><text fill="#000000" font-family="sans-serif" font-size="11" lengthAdjust="spacingAndGlyphs" textLength="100" x="406.5" y="125.2589">+connectToDevice()</text><text fill="#000000" font-family="sans-serif" font-size="11" lengthAdjust="spacingAndGlyphs" textLength="107" x="406.5" y="140.2408">+displayHealthData()</text><!--MD5=[0c681d94d7454ffa779ba3962cf747fc]
class SymptomScreen--><rect fill="#FEFECE" filter="url(#fjbsb49j1on7e)" height="77.9638" id="SymptomScreen" style="stroke: #A80036; stroke-width: 1.5;" width="124" x="729" y="69.5"/><ellipse cx="744" cy="85.5" fill="#ADD1B2" rx="11" ry="11" style="stroke: #A80036; stroke-width: 1.0;"/><path d="M746.9688,91.1406 Q746.3906,91.4375 745.75,91.5781 Q745.1094,91.7344 744.4063,91.7344 Q741.9063,91.7344 740.5781,90.0938 Q739.2656,88.4375 739.2656,85.3125 Q739.2656,82.1875 740.5781,80.5313 Q741.9063,78.875 744.4063,78.875 Q745.1094,78.875 745.75,79.0313 Q746.4063,79.1875 746.9688,79.4844 L746.9688,82.2031 Q746.3438,81.625 745.75,81.3594 Q745.1563,81.0781 744.5313,81.0781 Q743.1875,81.0781 742.5,82.1563 Q741.8125,83.2188 741.8125,85.3125 Q741.8125,87.4063 742.5,88.4844 Q743.1875,89.5469 744.5313,89.5469 Q745.1563,89.5469 745.75,89.2813 Q746.3438,89 746.9688,88.4219 L746.9688,91.1406 Z "/><text fill="#000000" font-family="sans-serif" font-size="12" lengthAdjust="spacingAndGlyphs" textLength="92" x="758" y="90.156">SymptomScreen</text><line style="stroke: #A80036; stroke-width: 1.5;" x1="730" x2="852" y1="101.5" y2="101.5"/><line style="stroke: #A80036; stroke-width: 1.5;" x1="730" x2="852" y1="109.5" y2="109.5"/><text fill="#000000" font-family="sans-serif" font-size="11" lengthAdjust="spacingAndGlyphs" textLength="102" x="735" y="125.2589">+recordSymptoms()</text><text fill="#000000" font-family="sans-serif" font-size="11" lengthAdjust="spacingAndGlyphs" textLength="106" x="735" y="140.2408">+analyzeSymptoms()</text><!--MD5=[632612bb3bef14acdb8744508c84f568]
link UserModel to AppointmentModel--><path d="M168.41,155.34 C157.14,176.37 143.8,201.24 132.53,222.26 " fill="none" id="UserModel-AppointmentModel" style="stroke: #A80036; stroke-width: 1.0;"/><text fill="#000000" font-family="sans-serif" font-size="13" lengthAdjust="spacingAndGlyphs" textLength="7" x="157.6354" y="176.7244">1</text><text fill="#000000" font-family="sans-serif" font-size="13" lengthAdjust="spacingAndGlyphs" textLength="20" x="114.7549" y="210.7566">0..*</text><!--MD5=[8509decd82b0c5e1fec96b6cbfeac1d8]
link UserModel to HealthDataModel--><path d="M217.59,155.34 C227.59,174 239.21,195.67 249.57,214.99 " fill="none" id="UserModel-HealthDataModel" style="stroke: #A80036; stroke-width: 1.0;"/><text fill="#000000" font-family="sans-serif" font-size="13" lengthAdjust="spacingAndGlyphs" textLength="7" x="213.424" y="176.7244">1</text><text fill="#000000" font-family="sans-serif" font-size="13" lengthAdjust="spacingAndGlyphs" textLength="20" x="224.1658" y="203.1513">0..*</text><!--MD5=[5d8161a3cdbc7cb151cf6115f0b3b4c4]
link AuthService to FirebaseService--><path d="M772.22,308.1 C770.68,329.3 768.75,355.75 767.15,377.72 " fill="none" id="AuthService-&gt;FirebaseService" style="stroke: #A80036; stroke-width: 1.0; stroke-dasharray: 7.0,7.0;"/><polygon fill="#A80036" points="766.77,382.91,771.4276,374.232,767.1415,377.9238,763.4497,373.6377,766.77,382.91" style="stroke: #A80036; stroke-width: 1.0;"/><!--MD5=[179dd936dc45880cdaeec2c8a2d4ebf3]
link BluetoothService to WearableScreen--><path d="M587.67,229.98 C563.16,206.3 531.61,175.8 506.37,151.42 " fill="none" id="BluetoothService-&gt;WearableScreen" style="stroke: #A80036; stroke-width: 1.0; stroke-dasharray: 7.0,7.0;"/><polygon fill="#A80036" points="502.7,147.87,506.4021,156.9966,506.2992,151.3407,511.9551,151.2378,502.7,147.87" style="stroke: #A80036; stroke-width: 1.0;"/><!--MD5=[fa6439e2f4ba69809ba51f81cbbd890e]
link DashboardScreen to BluetoothService--><path d="M627,140.06 C627,164.1 627,197.89 627,224.71 " fill="none" id="DashboardScreen-&gt;BluetoothService" style="stroke: #A80036; stroke-width: 1.0; stroke-dasharray: 7.0,7.0;"/><polygon fill="#A80036" points="627,229.97,631,220.97,627,224.97,623,220.97,627,229.97" style="stroke: #A80036; stroke-width: 1.0;"/><!--MD5=[0f1532dcee16fd0facc0ed0862865462]
link SymptomScreen to AuthService--><path d="M787.13,147.87 C784.78,171.13 781.78,200.87 779.35,224.94 " fill="none" id="SymptomScreen-&gt;AuthService" style="stroke: #A80036; stroke-width: 1.0; stroke-dasharray: 7.0,7.0;"/><polygon fill="#A80036" points="778.84,229.98,783.7449,221.4394,779.3545,225.0065,775.7873,220.6162,778.84,229.98" style="stroke: #A80036; stroke-width: 1.0;"/><!--MD5=[b3ec5b4443bdf856e6a554ec7f4cd1b0]
@startuml Aidx_Project_Architecture

skinparam classAttributeIconSize 0

package Models {
    class UserModel {
        +id: String
        +name: String
        +email: String
    }

    class AppointmentModel {
        +id: String
        +userId: String
        +title: String
    }

    class HealthDataModel {
        +id: String
        +userId: String
        +type: String
        +value: double
    }
}

package Services {
    class AuthService {
        +signIn()
        +signOut()
    }

    class BluetoothService {
        +scanDevices()
        +connectToDevice()
    }

    class FirebaseService {
        +saveUserData()
        +fetchUserData()
    }
}

package Screens {
    class DashboardScreen {
        +displayHealthMetrics()
    }

    class WearableScreen {
        +connectToDevice()
        +displayHealthData()
    }

    class SymptomScreen {
        +recordSymptoms()
        +analyzeSymptoms()
    }
}

UserModel "1" - - "0..*" AppointmentModel
UserModel "1" - - "0..*" HealthDataModel
AuthService ..> FirebaseService
BluetoothService ..> WearableScreen
DashboardScreen ..> BluetoothService
SymptomScreen ..> AuthService

@enduml 

PlantUML version 1.2020.02(Sun Mar 01 16:22:07 BDT 2020)
(GPL source distribution)
Java Runtime: OpenJDK Runtime Environment
JVM: OpenJDK 64-Bit Server VM
Java Version: 21.0.7+6-Ubuntu-0ubuntu124.04
Operating System: Linux
Default Encoding: UTF-8
Language: en
Country: US
--></g></svg>